<svg height="511pt" viewBox="0 -42 511.99963 511" width="511pt" xmlns="http://www.w3.org/2000/svg"><path d="m358.414062 256.53125h51.195313v102.390625h-51.195313zm0 0" fill="#69b0bb"/><path d="m42.707031 196.800781h324.238281v221.847657h-324.238281zm0 0" fill="#6fbbc6"/><path d="m469.335938 410.117188-68.257813-51.195313v-102.390625l68.257813-59.730469h34.132812v213.316407zm0 0" fill="#6fbbc6"/><path d="m136.566406 265.0625h136.519532v85.324219h-136.519532zm0 0" fill="#64a8b2"/><path d="m179.230469 307.726562c0 23.558594-19.101563 42.660157-42.664063 42.660157s-42.664062-19.101563-42.664062-42.660157c0-23.5625 19.101562-42.664062 42.664062-42.664062s42.664063 19.101562 42.664063 42.664062zm0 0" fill="#3b869e"/><path d="m315.757812 307.734375c0 23.5625-19.101562 42.664063-42.660156 42.664063-23.5625 0-42.664062-19.101563-42.664062-42.664063s19.101562-42.664063 42.664062-42.664063c23.558594 0 42.660156 19.101563 42.660156 42.664063zm0 0" fill="#3b869e"/><path d="m196.292969 102.941406c0 51.835938-42.019531 93.859375-93.859375 93.859375-51.835938 0-93.855469-42.023437-93.855469-93.859375 0-51.835937 42.019531-93.859375 93.855469-93.859375 51.839844 0 93.859375 42.023438 93.859375 93.859375zm0 0" fill="#eac25e"/><g fill="#deb859"><path d="m128.03125 102.941406c0 14.136719-11.457031 25.597656-25.597656 25.597656-14.136719 0-25.597656-11.460937-25.597656-25.597656 0-14.136718 11.460937-25.597656 25.597656-25.597656 14.140625 0 25.597656 11.460938 25.597656 25.597656zm0 0"/><path d="m36.070312 177.839844c-4.714843 0-8.535156-3.820313-8.53125-8.53125 0-2.261719.898438-4.433594 2.496094-6.03125l18.097656-18.097656c3.390626-3.273438 8.792969-3.179688 12.066407.207031 3.195312 3.308593 3.195312 8.550781 0 11.855469l-18.097657 18.097656c-1.601562 1.601562-3.769531 2.5-6.03125 2.5zm0 0"/><path d="m150.703125 63.207031c-4.710937 0-8.53125-3.824219-8.53125-8.535156 0-2.261719.902344-4.429687 2.5-6.03125l18.097656-18.097656c3.390625-3.273438 8.792969-3.179688 12.066407.210937 3.191406 3.304688 3.191406 8.546875 0 11.855469l-18.097657 18.097656c-1.601562 1.597657-3.769531 2.5-6.035156 2.5zm0 0"/><path d="m168.800781 177.839844c-2.261719 0-4.433593-.898438-6.03125-2.5l-18.097656-18.097656c-3.273437-3.386719-3.179687-8.789063.210937-12.0625 3.304688-3.195313 8.546876-3.195313 11.855469 0l18.097657 18.097656c3.332031 3.332031 3.328124 8.734375-.003907 12.066406-1.597656 1.597656-3.769531 2.496094-6.03125 2.496094zm0 0"/><path d="m54.167969 63.207031c-2.265625 0-4.433594-.902343-6.035157-2.5l-18.097656-18.097656c-3.273437-3.390625-3.179687-8.792969.210938-12.066406 3.308594-3.195313 8.550781-3.195313 11.855468 0l18.097657 18.097656c3.332031 3.332031 3.332031 8.734375 0 12.066406-1.601563 1.601563-3.769531 2.5-6.03125 2.5zm0 0"/></g><path d="m401.074219 102.941406c0 51.835938-42.019531 93.859375-93.855469 93.859375s-93.859375-42.023437-93.859375-93.859375c0-51.835937 42.023437-93.859375 93.859375-93.859375s93.855469 42.023438 93.855469 93.859375zm0 0" fill="#eac25e"/><path d="m332.816406 102.941406c0 14.136719-11.460937 25.597656-25.597656 25.597656s-25.597656-11.460937-25.597656-25.597656c0-14.136718 11.460937-25.597656 25.597656-25.597656s25.597656 11.460938 25.597656 25.597656zm0 0" fill="#deb859"/><path d="m240.851562 177.839844c-4.710937 0-8.53125-3.820313-8.53125-8.53125 0-2.261719.898438-4.433594 2.5-6.03125l18.097657-18.097656c3.386719-3.273438 8.789062-3.179688 12.0625.207031 3.195312 3.308593 3.195312 8.550781 0 11.855469l-18.097657 18.097656c-1.597656 1.601562-3.769531 2.5-6.03125 2.5zm0 0" fill="#deb859"/><path d="m355.488281 63.207031c-4.714843 0-8.535156-3.824219-8.53125-8.535156 0-2.261719.898438-4.429687 2.496094-6.03125l18.097656-18.097656c3.390625-3.273438 8.792969-3.179688 12.066407.210937 3.195312 3.304688 3.195312 8.546875 0 11.855469l-18.097657 18.097656c-1.601562 1.597657-3.769531 2.5-6.03125 2.5zm0 0" fill="#deb859"/><path d="m373.585938 177.839844c-2.265626 0-4.433594-.898438-6.035157-2.5l-18.097656-18.097656c-3.386719-3.273438-3.480469-8.675782-.207031-12.0625 3.273437-3.390626 8.675781-3.484376 12.0625-.210938.074218.070312.140625.136719.210937.210938l18.097657 18.097656c3.332031 3.332031 3.332031 8.734375-.003907 12.066406-1.597656 1.597656-3.765625 2.496094-6.027343 2.496094zm0 0" fill="#deb859"/><path d="m258.949219 63.207031c-2.261719 0-4.433594-.902343-6.03125-2.5l-18.097657-18.097656c-3.277343-3.390625-3.179687-8.792969.207032-12.066406 3.308594-3.191407 8.550781-3.191407 11.855468 0l18.097657 18.097656c3.332031 3.332031 3.332031 8.734375 0 12.066406-1.601563 1.601563-3.769531 2.5-6.03125 2.5zm0 0" fill="#deb859"/><path d="m307.21875 17.617188h-213.316406c-4.710938 0-8.53125-3.820313-8.53125-8.535157 0-4.710937 3.820312-8.53125 8.53125-8.53125h213.316406c4.710938 0 8.53125 3.820313 8.53125 8.53125 0 4.714844-3.820312 8.535157-8.53125 8.535157zm0 0" fill="#787d82"/><path d="m469.335938 196.800781h34.132812v213.316407h-34.132812zm0 0" fill="#8aced8"/><path d="m196.292969 375.984375h17.066406v17.066406h-17.066406zm0 0" fill="#64a8b2"/><path d="m230.425781 375.984375h17.0625v17.066406h-17.0625zm0 0" fill="#64a8b2"/><path d="m162.164062 375.984375h17.0625v17.066406h-17.0625zm0 0" fill="#64a8b2"/><path d="m102.433594 205.28125c-56.519532.039062-102.3671878-45.75-102.4062502-102.269531-.015625-27.183594 10.7812502-53.257813 30.0078122-72.46875 39.957032-40.015625 104.789063-40.0625 144.804688-.105469 40.015625 39.953125 40.0625 104.785156.105468 144.800781-19.21875 19.25-45.308593 30.058594-72.511718 30.042969zm-60.332032-162.671875c-33.324218 33.320313-33.324218 87.347656 0 120.667969 33.320313 33.324218 87.34375 33.324218 120.667969 0 33.320313-33.320313 33.324219-87.34375 0-120.667969-33.34375-33.269531-87.324219-33.269531-120.667969 0zm0 0" fill="#a8a8a8"/><path d="m307.21875 205.28125c-56.523438.039062-102.371094-45.75-102.410156-102.269531-.015625-27.183594 10.78125-53.257813 30.011718-72.46875 39.953126-40.015625 104.785157-40.0625 144.800782-.105469s40.0625 104.785156.109375 144.800781c-19.222657 19.25-45.3125 30.058594-72.511719 30.042969zm-60.335938-162.671875c-33.320312 33.320313-33.320312 87.347656 0 120.667969 33.320313 33.324218 87.347657 33.324218 120.667969 0 33.324219-33.320313 33.324219-87.34375.003907-120.667969-.003907 0-.003907 0-.003907 0-33.34375-33.269531-87.324219-33.269531-120.667969 0zm0 0" fill="#a8a8a8"/><path d="m136.566406 358.921875h136.632813c28.273437.042969 51.230469-22.84375 51.273437-51.117187.039063-24.714844-17.585937-45.929688-41.886718-50.421876-3.097657-.570312-6.238282-.859374-9.386719-.855468h-136.632813c-28.273437 0-51.195312 22.921875-51.195312 51.199218 0 28.273438 22.921875 51.195313 51.195312 51.195313zm145.054688-84.097656c18.179687 4.519531 29.257812 22.925781 24.734375 41.109375-3.03125 12.1875-12.546875 21.703125-24.734375 24.734375zm-42.074219 26.585937c2.390625-13.019531 12.167969-23.445312 25.007813-26.664062v65.878906c-17.425782-4.378906-28.402344-21.601562-25.007813-39.25zm-64.925781-27.816406h60.496094c-17.617188 19.332031-17.652344 48.886719-.085938 68.261719h-60.410156c17.519531-19.382813 17.519531-48.878907 0-68.261719zm-29.523438 1.210938c18.179688 4.628906 29.167969 23.117187 24.542969 41.296874-3.070313 12.058594-12.484375 21.472657-24.542969 24.542969zm-17.066406 0v65.839843c-18.179688-4.628906-29.164062-23.117187-24.539062-41.296875 3.070312-12.058594 12.484374-21.472656 24.539062-24.542968zm0 0"/><path d="m30.035156 175.339844c4.824219 4.828125 10.117188 9.160156 15.804688 12.929687h-3.132813c-4.710937 0-8.53125 3.820313-8.53125 8.53125v221.847657c0 4.710937 3.820313 8.53125 8.53125 8.53125h324.238281c4.710938 0 8.53125-3.820313 8.53125-8.53125v-51.195313h22.757813l65.984375 49.488281c.371094.230469.757812.433594 1.160156.605469.296875.183594.609375.347656.929688.488281.960937.390625 1.988281.597656 3.027344.613282h34.132812c4.710938 0 8.53125-3.820313 8.53125-8.53125v-213.316407c0-4.710937-3.820312-8.53125-8.53125-8.53125h-34.132812c-1.082032.011719-2.152344.226563-3.15625.640625-.355469.175782-.699219.378906-1.023438.605469-.507812.238281-.988281.523437-1.441406.851563l-65.847656 57.628906h-22.386719v-51.195313c0-4.710937-3.820313-8.53125-8.535157-8.53125h-3.128906c47.117188-31.222656 60.003906-94.734375 28.78125-141.851562-18.914062-28.546875-50.855468-45.742188-85.097656-45.816407-.101562 0-.1875-.050781-.28125-.050781h-213.316406c-1.238282.023438-2.460938.3125-3.574219.855469-56.089844 6.589844-96.210937 57.402344-89.621094 113.492188 2.691407 22.875 13.023438 44.171874 29.328125 60.441406zm447.835938 29.992187h17.0625v196.25h-17.0625zm-68.261719 55.070313 51.195313-44.796875v177.445312l-51.195313-38.398437zm-34.132813 4.660156h17.066407v85.324219h-17.066407zm-17.0625 145.054688h-307.175781v-204.785157h307.175781zm-93.433593-361.476563-11.757813-11.757813c31.441406-25.617187 76.550782-25.617187 107.988282 0l-11.757813 11.757813c-3.386719 3.273437-3.480469 8.675781-.207031 12.066406 3.273437 3.386719 8.675781 3.480469 12.0625.207031.074218-.066406.140625-.136718.210937-.207031l11.757813-11.757812c25.621094 31.433593 25.621094 76.550781 0 107.988281l-11.757813-11.757812c-3.273437-3.390626-8.675781-3.484376-12.066406-.210938-3.386719 3.273438-3.480469 8.675781-.207031 12.066406.066406.070313.136718.140625.207031.207032l11.757813 11.757812c-31.433594 25.625-76.550782 25.625-107.988282 0l11.757813-11.757812c3.273437-3.386719 3.179687-8.789063-.210938-12.0625-3.304687-3.195313-8.546875-3.195313-11.851562 0l-11.757813 11.757812c-25.625-31.4375-25.625-76.554688 0-107.988281l11.757813 11.757812c3.386719 3.273438 8.789062 3.179688 12.0625-.210937 3.195312-3.304688 3.195312-8.546875 0-11.855469zm-14.359375-31.023437c-47.125 31.257812-59.984375 94.800781-28.726563 141.925781 7.558594 11.398437 17.328125 21.164062 28.726563 28.726562h-91.589844c47.125-31.257812 59.988281-94.800781 28.726562-141.925781-7.558593-11.398438-17.328124-21.167969-28.726562-28.726562zm-202.488282 43.089843c3.390626 3.273438 8.792969 3.179688 12.066407-.210937 3.195312-3.304688 3.195312-8.546875 0-11.855469l-11.757813-11.757813c31.4375-25.617187 76.550782-25.617187 107.988282 0l-11.757813 11.757813c-3.390625 3.273437-3.484375 8.675781-.210937 12.066406 3.273437 3.386719 8.675781 3.484375 12.066406.210938.070312-.070313.140625-.140625.210937-.210938l11.757813-11.757812c25.621094 31.433593 25.621094 76.550781 0 107.988281l-11.757813-11.757812c-3.390625-3.273438-8.792969-3.179688-12.066406.210937-3.195313 3.304687-3.195313 8.546875 0 11.851563l11.757813 11.757812c-31.4375 25.621094-76.550782 25.621094-107.988282 0l11.757813-11.757812c3.273437-3.386719 3.179687-8.789063-.210938-12.0625-3.304687-3.195313-8.546875-3.195313-11.855469 0l-11.757812 11.757812c-25.621094-31.4375-25.621094-76.554688 0-107.988281zm0 0"/><path d="m102.433594 137.074219c18.851562-.003907 34.128906-15.289063 34.125-34.140625-.003906-9.046875-3.597656-17.722656-9.992188-24.121094-13.5-12.902344-34.761718-12.902344-48.261718 0-13.328126 13.332031-13.324219 34.941406.007812 48.265625 6.398438 6.398437 15.074219 9.992187 24.121094 9.996094zm-12.0625-46.195313c6.546875-6.78125 17.351562-6.96875 24.128906-.421875 6.78125 6.550781 6.96875 17.351563.417969 24.132813-.136719.140625-.277344.28125-.417969.417968-6.75 6.449219-17.378906 6.449219-24.128906 0-6.664063-6.664062-6.664063-17.464843 0-24.128906zm0 0"/><path d="m307.21875 137.074219c18.847656-.003907 34.125-15.289063 34.121094-34.140625 0-9.046875-3.59375-17.722656-9.992188-24.121094-13.5-12.902344-34.761718-12.902344-48.261718 0-13.324219 13.332031-13.324219 34.941406.007812 48.265625 6.398438 6.398437 15.078125 9.992187 24.125 9.996094zm-12.066406-46.195313c6.546875-6.78125 17.351562-6.96875 24.128906-.421875 6.78125 6.546875 6.96875 17.351563.421875 24.132813-.136719.140625-.277344.28125-.421875.417968-6.75 6.449219-17.378906 6.449219-24.128906 0-6.660156-6.664062-6.660156-17.464843 0-24.128906zm0 0"/><path d="m196.292969 375.984375h17.066406v17.066406h-17.066406zm0 0"/><path d="m230.425781 375.984375h17.0625v17.066406h-17.0625zm0 0"/><path d="m162.164062 375.984375h17.0625v17.066406h-17.0625zm0 0"/></svg>